# xmcd CD database file
#
# Track frame offsets:
#	150
#	24295
#	50641
#	68167
#	89426
#	107002
#	130048
#	154459
#	181330
#	225601
#	253082
#	277753
#	299552
#	320520
#
# Disc length: 4465 seconds
#
# Revision: 0
# Processed by: cddbd v1.5.2PL0 Copyright (c) Steve Scherf et al.
# Submitted via: CDex 1.70beta2
#
DISCID=c5116f0e
DTITLE=Gerry Mulligan - The Concert Jazz Band
DYEAR=1961
DGENRE=Jazz
TTITLE0=Sweet and Slow
TTITLE1=Bweebida Bobbida
TTITLE2=Manoir de mes Rêves (Django's Castle)
TTITLE3=You Took Advantage of me
TTITLE4=Out of This World
TTITLE5=My Funny Valentine
TTITLE6=Broadway
TTITLE7=I'm Gonna Go Fishin'
TTITLE8=All About Rosie
TTITLE9=Weep
TTITLE10=I Know, Don't Know How
TTITLE11=Chuggin'
TTITLE12=Summer's Over
TTITLE13=Israel
EXTD=YEAR: 1961
EXTT0=
EXTT1=
EXTT2=
EXTT3=
EXTT4=
EXTT5=
EXTT6=
EXTT7=
EXTT8=
EXTT9=
EXTT10=
EXTT11=
EXTT12=
EXTT13=
PLAYORDER=
